<svg xmlns="http://www.w3.org/2000/svg" xml:space="preserve" width="4704.0269" height="2708.72" viewBox="0 0 4704.0269 2708.72"><path d="M15507.2 1623.13c3.6-1.12 7.3-2.19 11.1-3.16 1.6-4.72 3.3-9.39 5.2-14.01-5.2 5.93-10.7 11.67-16.3 17.17m-148.9 102.14c8.8-11.19 18.4-21.7 28.6-31.47-11.6 3.5-23.5 6.22-35.7 8.27 2.6 7.63 4.9 15.37 7.1 23.2m541.5 368.62c-19.3 0-38.4-1.31-57-3.75-20.9 28.89-46.5 54.04-76 74.08 8.4 27.87 12.9 57.44 12.9 88.08 0 168.48-136.5 305.05-305 305.05s-305-136.57-305-305.05c0-10.65.5-21.11 1.6-31.47-69.1 45.33-151.4 72.08-240 73.25 9 22.18 14 45.33 14 69.11 0 136.48-156.9 251.27-369.8 285.02-121 211.38-381.6 357.58-683.5 357.58-417.3 0-755.6-279.32-755.6-623.92 0-111.04 35.2-215.32 96.8-305.64-23.4-11.04-45.7-24.17-66.7-38.96-48.6 14.16-99.9 21.89-153.1 21.89-65.9 0-129-11.67-187.5-33.02 0 1.55.1 3.06.1 4.62 0 284.96-231 515.94-515.9 515.94-285 0-516-230.98-516-515.94 0-109 33.9-210.07 91.6-293.33-193.5-16.1-340.9-99.08-340.9-199.08 0-111.52 183.3-201.94 409.4-201.94 75.1 0 145.4 10.02 205.8 27.43 23.7-178.01 176.1-315.41 360.5-315.41 55.4 0 107.8 12.4 154.8 34.53 93-73.39 210.4-117.264 338.1-117.264 133.2 0 255.3 47.714 350.2 126.894 78.1-143.042 229.9-240.073 404.3-240.073 155.1 0 292.2 76.75 375.6 194.303 107.5-50.87 241.7-81.124 387.3-81.124 254.8 0 474.7 92.464 577.2 226.214 51.9-45.77 119.9-73.59 194.5-73.59 162.3 0 293.9 131.61 293.9 293.92 0 35.16-6.2 68.82-17.4 100.04 72.9-88.91 189.4-146.49 320.8-146.49 221 0 400.2 162.98 400.2 364.05 0 201.06-179.2 364.05-400.2 364.05" style="fill:#e9f6fc;fill-opacity:1;fill-rule:nonzero;stroke:none" transform="matrix(.2741373 0 0 -.2741373 0 2708.72)"/><path d="M16006.5 1488.1c-158.2 0-297.9 68.21-382 172.29-1.5-174.48-152.6-315.52-338.8-315.52-36.6 0-71.8 5.61-104.9 15.65-112.6-154.84-340.9-260.77-604.4-260.77-271.1 0-505.2 112.32-614 274.66-68.9-83.7-177.9-137.77-300.7-137.77-77.2 0-149 21.5-208.9 58.21-82-62.94-190.5-101.26-309.6-101.26-102.4 0-196.9 28.38-273.5 76.25-68.1-48.07-150.5-76.25-239.5-76.25-191.8 0-353.8 131.05-405.2 310.5-66.9-10.28-139.8-15.99-216.3-15.99-172.8 0-328 28.91-434.5 74.84-1.5-6.88-2.2-13.85-2.2-20.97 0-111.78 183.7-202.37 410.4-202.37 75.2 0 145.6 10 206.3 27.4 23.7-178.43 176.3-316.1 361.3-316.1 55.5 0 108 12.43 155.1 34.61 93.3-73.57 210.9-117.541 339-117.541 133.5 0 255.9 47.831 350.9 127.191 78.3-143.327 230.4-240.636 405.3-240.636 155.5 0 292.8 76.98 376.5 194.716 107.7-50.946 242.3-81.271 388.2-81.271 255.4 0 475.8 92.681 578.6 226.791 51.9-45.92 120.1-73.86 194.9-73.86 162.7 0 294.7 131.93 294.7 294.66 0 35.2-6.3 68.98-17.6 100.33 73.1-89.21 190-146.94 321.6-146.94 160.2 0 298.6 85.52 362.8 209.1-80.1-56.21-182.2-89.95-293.5-89.95" style="fill:#b5d7f7;fill-opacity:1;fill-rule:nonzero;stroke:none" transform="matrix(.2734933 0 0 -.2734933 0 2708.72)"/><path d="M16300 1794.31c-12.3 3.71-24.9 6.59-37.8 8.76 2.7 8.14 5.2 16.28 7.5 24.58 9.3-11.85 19.4-22.98 30.3-33.34" style="fill:#e9f6fc;fill-opacity:1;fill-rule:nonzero;stroke:none" transform="matrix(.2587813 0 0 -.2587813 0 2708.72)"/><path d="M16300 1686.3c-5.5 6.28-11.2 12.25-17.2 18.02 3.9-1.22 7.8-2.24 11.7-3.32 1.8-4.9 3.6-9.85 5.5-14.7" style="fill:#e9f6fc;fill-opacity:1;fill-rule:nonzero;stroke:none" transform="matrix(.2610773 0 0 -.2610773 0 2708.72)"/><path d="M15673.5 2034.51c49.1-57.83 79.7-129.67 88.5-204.47 76.8 53.4 161.2 67.7 256.4 67.7 95.3 0 197.6-64.15 257.1-134.19 8.7-10.31 16.9-21.11 24.5-32.25-.9 200.39-179.7 362.6-400.1 362.6-19.4 0-38.5-1.32-57.1-3.75-20.8 28.89-46.5 54.04-76 74.08 8.4 27.86 13 57.44 13 88.08 0 168.48-136.6 305.05-305.1 305.05-168.4 0-305-136.57-305-305.05 0-10.65.5-21.11 1.6-31.47-69.1 45.33-151.4 72.08-239.9 73.25 9 22.18 13.9 45.33 13.9 69.11 0 136.48-156.9 251.26-369.8 285.02-121 211.38-381.6 357.58-683.4 357.58-417.4 0-755.6-279.32-755.6-623.92 0-111.04 35.2-215.32 96.8-305.64-23.5-11.04-45.8-24.17-66.7-38.96-48.6 14.16-100 21.89-153.1 21.89-65.9 0-129.1-11.67-187.6-33.03.1 1.56.2 3.07.2 4.62 0 284.97-231.1 515.95-516 515.95-285 0-516-230.98-516-515.95 0-108.99 33.9-210.06 91.6-293.33-179.8-14.98-319.7-87.69-338.6-178.16h-.1c0-.29 0-.58-.1-.92-.4-2.14-.7-4.28-1-6.42-.2-1.27-.4-2.53-.5-3.8-.3-2.23-.3-4.52-.4-6.76 0-1.02-.1-1.99-.1-3.01 0-13.91 2.9-27.48 8.3-40.61 48.7 36.76 105.6 61.18 167.9 74.65 97.7 21.11 201 30.6 302.3 28.26-64.6 78.02-96.2 180.55-86.7 281.52 9.4 99.27 58.2 192.5 134.1 257.05 84.4 71.69 177.9 89.64 285.1 89.64 95.3 0 197.6-64.16 257.1-134.15 66.7-78.45 99.3-182.63 89.6-285.11-5-53.26-21.5-104.72-47.3-150.97 9 1.7 18 3.26 26.7 4.42 92.3 12.6 189.4 13.58 281.4-3.59 70.1-13.14 139.1-29.43 206.9-49.37 22.5 64.69 62.1 123.2 114.7 167.9 46.9 39.93 96.8 63.13 150.2 75.92-22.5 48.83-40.2 100.19-54.5 153.06-63.2 234 33.5 494.79 210.3 652.81 194.4 173.79 485.1 213.67 728.1 132.74 235.6-78.46 386.3-287.45 436.9-523.2 14.3-66.39 20.6-135.5 20.5-204.96 25.2 2.82 51.1 3.94 78 3.94 69.2 0 142-33.9 199.5-79.23 20.9 33.56 46.9 64.11 77.3 89.93 84.3 71.7 177.9 89.64 285.1 89.64 95.2 0 197.6-64.15 257.1-134.14" style="fill:#fff;fill-opacity:1;fill-rule:nonzero;stroke:none" transform="matrix(.274136 0 0 -.274136 0 2708.72)"/><path d="M16127.7 2846.51s4.1-659.14-559.7-831.45c0 0 732 59.9 559.7 831.45" style="fill:#b5d7f7;fill-opacity:1;fill-rule:nonzero;stroke:none" transform="matrix(.244824 0 0 -.244824 0 2708.72)"/><path d="M15891.7 2294.14s351.1 16.03 374.9 237.56c0 0 33.4-256.13-423.2-315.5z" style="fill:#b5d7f7;fill-opacity:1;fill-rule:nonzero;stroke:none" transform="matrix(.2470173 0 0 -.2470173 0 2708.72)"/><path d="M15779.7 1556.8s316.2-196.11 520.3 80.01c0 0-288.2-144.02-520.3-80.01" style="fill:#b5d7f7;fill-opacity:1;fill-rule:nonzero;stroke:none" transform="matrix(.2291293 0 0 -.2291293 0 2708.72)"/><path d="M16300 1837.5s-259.2-430.52-795.4-37.3c0 0 448-250.64 795.4 37.3" style="fill:#b5d7f7;fill-opacity:1;fill-rule:nonzero;stroke:none" transform="matrix(.2674653 0 0 -.2674653 0 2708.72)"/><path d="M16300 1348.23s-114.1-243.72-539.3-150.42c0 0 492.6-279.97 539.3 150.42" style="fill:#e9f6fc;fill-opacity:1;fill-rule:nonzero;stroke:none" transform="matrix(.2357853 0 0 -.2357853 0 2708.72)"/></svg>